<?xml version="1.0" encoding="UTF-8" standalone="no"?>
<svg
   width="18.177471"
   height="18.270561"
   viewBox="0 0 18.177471 18.270561"
   version="1.1"
   id="svg10261"
   xmlns="http://www.w3.org/2000/svg"
   xmlns:svg="http://www.w3.org/2000/svg">
  <defs
     id="defs10265" />
  <g
     id="g8777"
     transform="matrix(0.00183071,0,0,-0.00183071,-25.259221,54.71542)">
    <path
       d="m 22176.7,28013.7 c -882.7,955.7 -2145.8,1554 -3549.2,1554 -2667.5,0 -4830,-2162.6 -4830,-4830.1 0,-2667.5 2162.5,-4830.1 4830,-4830.1 2667.5,0 4830.1,2162.6 4830.1,4830.1 0,1264.2 -486,2415.3 -1280.9,3276.1"
       style="fill:#fdc724;fill-opacity:1;fill-rule:nonzero;stroke:none"
       id="path1750" />
    <path
       d="m 20520.3,26484.7 c 424,-459.1 683.3,-1072.9 683.3,-1747.1 0,-1422.6 -1153.5,-2576 -2576.1,-2576 -1422.6,0 -2576,1153.4 -2576,2576 0,1422.7 1153.4,2576 2576,2576 748.3,0 1422.4,-319.1 1892.8,-828.9"
       style="fill:#2083fe;fill-opacity:1;fill-rule:nonzero;stroke:none"
       id="path1752" />
    <path
       d="m 23726.693,28277.541 -2254,-1932.1 h -1288 v 1288 l 1932,2254.1 v -1610 h 1610"
       style="fill:#bd4242;fill-opacity:1;fill-rule:nonzero;stroke:none"
       id="path1754" />
    <path
       d="m 19337.3,25392.6 c 158.9,-172.3 256.3,-402.2 256.3,-655 0,-533.6 -432.6,-966 -966.1,-966 -533.6,0 -966,432.4 -966,966 0,533.5 432.4,966.1 966,966.1 280.8,0 533.5,-119.9 709.8,-311.1"
       style="fill:#f7c010;fill-opacity:1;fill-rule:nonzero;stroke:none"
       id="path1756" />
    <path
       d="m 18649.83,24620.057 c -38.818,0 -77.546,17.262 -105.932,51.143 -53.995,64.459 -50.324,164.968 8.194,224.397 l 1874.174,1905.699 c 58.518,59.478 149.764,55.434 203.715,-9.025 53.996,-64.409 50.369,-164.919 -8.149,-224.348 l -1874.219,-1905.699 c -27.714,-28.21 -62.771,-42.167 -97.783,-42.167"
       style="fill:#bd4242;fill-opacity:1;fill-rule:nonzero;stroke:none;stroke-width:0.469903"
       id="path1758" />
  </g>
</svg>
