<?xml version="1.0" encoding="UTF-8" standalone="no"?>
<svg
   width="112.88884"
   height="18.676363"
   viewBox="0 0 112.88884 18.676363"
   version="1.1"
   id="svg4854"
   sodipodi:docname="logo.svg"
   inkscape:version="1.2.2 (1:1.2.2+202212051552+b0a8486541)"
   xmlns:inkscape="http://www.inkscape.org/namespaces/inkscape"
   xmlns:sodipodi="http://sodipodi.sourceforge.net/DTD/sodipodi-0.dtd"
   xmlns="http://www.w3.org/2000/svg"
   xmlns:svg="http://www.w3.org/2000/svg">
  <defs
     id="defs4858" />
  <sodipodi:namedview
     id="namedview4856"
     pagecolor="#ffffff"
     bordercolor="#000000"
     borderopacity="0.25"
     inkscape:showpageshadow="2"
     inkscape:pageopacity="0.0"
     inkscape:pagecheckerboard="0"
     inkscape:deskcolor="#d1d1d1"
     showgrid="false"
     inkscape:zoom="4.6689655"
     inkscape:cx="70.251108"
     inkscape:cy="1.6063516"
     inkscape:window-width="1606"
     inkscape:window-height="986"
     inkscape:window-x="74"
     inkscape:window-y="27"
     inkscape:window-maximized="1"
     inkscape:current-layer="svg4854" />
  <g
     id="g8777"
     transform="matrix(0.00183071,0,0,-0.00183071,-25.259221,54.966696)">
    <path
       d="m 22176.7,28013.7 c -882.7,955.7 -2145.8,1554 -3549.2,1554 -2667.5,0 -4830,-2162.6 -4830,-4830.1 0,-2667.5 2162.5,-4830.1 4830,-4830.1 2667.5,0 4830.1,2162.6 4830.1,4830.1 0,1264.2 -486,2415.3 -1280.9,3276.1"
       style="fill:#fdc724;fill-opacity:1;fill-rule:nonzero;stroke:none"
       id="path1750" />
    <path
       d="m 20520.3,26484.7 c 424,-459.1 683.3,-1072.9 683.3,-1747.1 0,-1422.6 -1153.5,-2576 -2576.1,-2576 -1422.6,0 -2576,1153.4 -2576,2576 0,1422.7 1153.4,2576 2576,2576 748.3,0 1422.4,-319.1 1892.8,-828.9"
       style="fill:#2083fe;fill-opacity:1;fill-rule:nonzero;stroke:none"
       id="path1752" />
    <path
       d="m 23726.693,28277.541 -2254,-1932.1 h -1288 v 1288 l 1932,2254.1 v -1610 h 1610"
       style="fill:#bd4242;fill-opacity:1;fill-rule:nonzero;stroke:none"
       id="path1754" />
    <path
       d="m 19337.3,25392.6 c 158.9,-172.3 256.3,-402.2 256.3,-655 0,-533.6 -432.6,-966 -966.1,-966 -533.6,0 -966,432.4 -966,966 0,533.5 432.4,966.1 966,966.1 280.8,0 533.5,-119.9 709.8,-311.1"
       style="fill:#f7c010;fill-opacity:1;fill-rule:nonzero;stroke:none"
       id="path1756" />
    <path
       d="m 18649.83,24620.057 c -38.818,0 -77.546,17.262 -105.932,51.143 -53.995,64.459 -50.324,164.968 8.194,224.397 l 1874.174,1905.699 c 58.518,59.478 149.764,55.434 203.715,-9.025 53.996,-64.409 50.369,-164.919 -8.149,-224.348 l -1874.219,-1905.699 c -27.714,-28.21 -62.771,-42.167 -97.783,-42.167"
       style="fill:#bd4242;fill-opacity:1;fill-rule:nonzero;stroke:none;stroke-width:0.469903"
       id="path1758" />
  </g>
  <g
     aria-label="ARCHER"
     id="text9263"
     style="font-weight:bold;font-size:21.3333px;font-family:'Spartan MB';-inkscape-font-specification:'Spartan MB, Bold'"
     transform="translate(-0.48513523,-0.17948501)">
    <path
       d="M 19.948676,18.506758 27.181403,0.50675774 h 3.098182 L 37.512312,18.506758 h -3.621818 l -1.592727,-4.243637 h -7.134546 l -1.592727,4.243637 z m 11.192727,-7.2 -2.410909,-6.2618184 -2.410909,6.2618184 z"
       style="font-size:24px"
       id="path9265" />
    <path
       d="m 44.581387,0.50675774 q 1.330909,0 2.432727,0.36 1.101819,0.35999996 1.898182,1.05818186 0.807273,0.6981818 1.243637,1.7127272 0.447272,1.0145455 0.447272,2.3236364 0,1.0581818 -0.294545,1.9309091 -0.294546,0.8618182 -0.84,1.5272727 -0.534546,0.665455 -1.309091,1.112727 -0.774546,0.436364 -1.723636,0.654546 l 5.967272,7.32 h -4.265454 l -5.247273,-6.850909 h -0.949091 v 6.850909 h -3.36 V 0.50675774 Z m -2.64,8.23636366 h 1.614546 q 0.752727,0 1.396363,-0.1636364 0.643637,-0.1636364 1.112727,-0.5018182 0.48,-0.3381818 0.741819,-0.8618182 0.272727,-0.5236363 0.272727,-1.2545454 0,-0.7309091 -0.272727,-1.2545455 Q 46.545023,4.1831214 46.065023,3.8449396 45.595933,3.5067577 44.952296,3.3540305 44.30866,3.1903941 43.555933,3.1903941 h -1.614546 z"
       style="font-size:24px"
       id="path9267" />
    <path
       d="m 62.43954,0.17948501 q 0.829091,0 1.625455,0.13090909 0.796364,0.12 1.527273,0.34909091 0.741818,0.21818182 1.385454,0.53454549 0.654546,0.3163636 1.189091,0.6981818 L 66.541359,4.6413032 Q 65.788631,4.0849396 64.774086,3.7903941 63.75954,3.4849396 62.657722,3.4849396 q -1.418182,0 -2.563636,0.4690909 -1.145455,0.4581818 -1.952727,1.2654545 -0.807273,0.8072727 -1.243637,1.92 -0.425454,1.1018182 -0.425454,2.3781818 0,1.2763632 0.425454,2.3890912 0.436364,1.101818 1.243637,1.909091 0.807272,0.807272 1.952727,1.276363 1.145454,0.458182 2.563636,0.458182 1.101818,0 2.116364,-0.294545 1.014545,-0.305455 1.767273,-0.861819 l 1.625454,2.749091 q -0.534545,0.381819 -1.189091,0.698182 -0.643636,0.316364 -1.385454,0.545455 -0.730909,0.218182 -1.527273,0.338182 -0.796364,0.130909 -1.625455,0.130909 -1.385454,0 -2.64,-0.327273 -1.254545,-0.327273 -2.323636,-0.927273 -1.069091,-0.610909 -1.930909,-1.461818 -0.850909,-0.850909 -1.461818,-1.887273 -0.6,-1.036363 -0.927273,-2.236363 -0.327273,-1.2 -0.327273,-2.4981822 0,-1.3090909 0.327273,-2.4981818 0.327273,-1.2 0.927273,-2.2363636 0.610909,-1.0363637 1.461818,-1.8872728 0.861818,-0.850909 1.930909,-1.450909 1.069091,-0.61090914 2.323636,-0.93818186 1.254546,-0.32727273 2.64,-0.32727273 z"
       style="font-size:24px"
       id="path9269" />
    <path
       d="M 73.544979,0.49584865 V 8.0013032 h 7.003636 V 0.49584865 h 3.36 V 18.506758 h -3.36 v -7.549091 h -7.003636 v 7.549091 h -3.36 V 0.49584865 Z"
       style="font-size:24px"
       id="path9271" />
    <path
       d="M 96.955849,0.50675774 V 3.4631214 h -6.567273 v 4.5381818 h 6.305455 v 2.9563638 h -6.305455 v 4.592727 h 6.567273 v 2.956364 H 87.028576 V 0.50675774 Z"
       style="font-size:24px"
       id="path9273" />
    <path
       d="m 105.55217,0.50675774 q 1.33091,0 2.43272,0.36 1.10182,0.35999996 1.89819,1.05818186 0.80727,0.6981818 1.24363,1.7127272 0.44727,1.0145455 0.44727,2.3236364 0,1.0581818 -0.29454,1.9309091 -0.29455,0.8618182 -0.84,1.5272727 -0.53455,0.665455 -1.30909,1.112727 -0.77455,0.436364 -1.72364,0.654546 l 5.96727,7.32 h -4.26545 l -5.24727,-6.850909 h -0.94909 v 6.850909 H 99.552167 V 0.50675774 Z m -2.64,8.23636366 h 1.61454 q 0.75273,0 1.39637,-0.1636364 0.64363,-0.1636364 1.11272,-0.5018182 0.48,-0.3381818 0.74182,-0.8618182 0.27273,-0.5236363 0.27273,-1.2545454 0,-0.7309091 -0.27273,-1.2545455 -0.26182,-0.5236363 -0.74182,-0.8618181 -0.46909,-0.3381819 -1.11272,-0.4909091 -0.64364,-0.1636364 -1.39637,-0.1636364 h -1.61454 z"
       style="font-size:24px"
       id="path9275" />
  </g>
</svg>
